<svg width="96" height="96" viewBox="0 0 96 96" fill="none" xmlns="http://www.w3.org/2000/svg">
  <rect width="96" height="96" rx="48" fill="#161411"/>
  <circle cx="48" cy="48" r="47" stroke="#8A7030" stroke-opacity="0.28" stroke-width="2"/>
  <circle cx="48" cy="51" r="19" fill="#EAC28E"/>
  <path d="M29 45C29 31.1929 37.5066 22 48 22C58.4934 22 67 31.1929 67 45V50C63.8 49.3 60.8 47.5 57.8 44.8C53.3 48.6 46.7 50.8 37.9 51.4H29V45Z" fill="#211A16"/>
  <path d="M41.8 57.3C43.7 58.9 45.7 59.8 48 59.8C50.3 59.8 52.3 58.9 54.2 57.3" stroke="#7E4B2C" stroke-width="2.2" stroke-linecap="round"/>
  <circle cx="42.5" cy="49.5" r="1.8" fill="#2B1C16"/>
  <circle cx="53.5" cy="49.5" r="1.8" fill="#2B1C16"/>
</svg>
