<svg width="96" height="96" viewBox="0 0 96 96" fill="none" xmlns="http://www.w3.org/2000/svg">
  <rect width="96" height="96" rx="48" fill="#161411"/>
  <circle cx="48" cy="48" r="47" stroke="#8A7030" stroke-opacity="0.28" stroke-width="2"/>
  <circle cx="48" cy="51" r="20" fill="#F1D497"/>
  <path d="M28 47C28 31.536 36.9543 22 48 22C59.0457 22 68 31.536 68 47V55H28V47Z" fill="#2C241C"/>
  <path d="M35 49C36.6 40 41 34 48 34C55 34 59.4 40 61 49" stroke="#2C241C" stroke-width="5" stroke-linecap="round"/>
  <path d="M41.5 57.5C43.8 60 46.1 61.2 48 61.2C49.9 61.2 52.2 60 54.5 57.5" stroke="#7E4B2C" stroke-width="2.2" stroke-linecap="round"/>
  <circle cx="42.5" cy="49.5" r="1.8" fill="#2B1C16"/>
  <circle cx="53.5" cy="49.5" r="1.8" fill="#2B1C16"/>
</svg>
