<svg width="96" height="96" viewBox="0 0 96 96" fill="none" xmlns="http://www.w3.org/2000/svg">
  <rect width="96" height="96" rx="48" fill="#161411"/>
  <circle cx="48" cy="48" r="47" stroke="#8A7030" stroke-opacity="0.28" stroke-width="2"/>
  <circle cx="48" cy="51" r="19" fill="#F1CE9D"/>
  <path d="M28 47C28 29.3269 37.402 19 48 19C58.598 19 68 29.3269 68 47C68 50.6 67.5 53.7 66.5 56.4C62.8 53.3 58.9 49.9 56.8 45.4C53.6 49.3 46.8 52 36.4 53.1H29.6C28.6 51.3 28 49.3 28 47Z" fill="#35231D"/>
  <path d="M41.6 57.2C43.7 59 45.9 59.9 48 59.9C50.1 59.9 52.3 59 54.4 57.2" stroke="#8A5534" stroke-width="2.2" stroke-linecap="round"/>
  <circle cx="42.5" cy="49.5" r="1.8" fill="#2B1C16"/>
  <circle cx="53.5" cy="49.5" r="1.8" fill="#2B1C16"/>
</svg>
